Coordinates
version=1
nRows=13
nColumns=40
inDegrees=yes

Units are S.I. units (second, meters, Newtons, ...)
Angles are in degrees.

endheader
time	pelvis_tilt	pelvis_list	pelvis_rotation	pelvis_tx	pelvis_ty	pelvis_tz	hip_flexion_r	hip_adduction_r	hip_rotation_r	knee_angle_r	knee_angle_r_beta	ankle_angle_r	subtalar_angle_r	mtp_angle_r	hip_flexion_l	hip_adduction_l	hip_rotation_l	knee_angle_l	knee_angle_l_beta	ankle_angle_l	subtalar_angle_l	mtp_angle_l	lumbar_extension	lumbar_bending	lumbar_rotation	arm_flex_r	arm_add_r	arm_rot_r	elbow_flex_r	pro_sup_r	wrist_flex_r	wrist_dev_r	arm_flex_l	arm_add_l	arm_rot_l	elbow_flex_l	pro_sup_l	wrist_flex_l	wrist_dev_l
     19.16000000	     -3.07389644	     -4.79789814	     -1.73974183	      0.94122128	      0.91995122	      0.41294209	     13.98258864	     -8.24638275	     -2.77715538	     49.44891049	     49.44891049	      4.01135600	     -5.76566172	    -17.65006757	     20.17510205	     -5.02686740	     -2.19315923	     31.62661834	     31.62661834	     16.43220372	    -15.13665356	      4.04901280	     -9.08133121	      6.59480649	      2.63331147	     16.03774260	    -11.46536394	     -5.66799607	     32.14988168	     45.60709039	      0.00000000	      0.00000000	     20.89146399	    -12.11853254	      6.85480990	     37.77177601	     45.45028493	      0.00000000	      0.00000000
     19.18178571	     -3.00082433	     -4.85526239	     -2.22590673	      0.94096409	      0.91893381	      0.41048477	     16.28350200	     -8.07798921	     -1.67757851	     53.04900103	     53.04900103	      2.71807167	     -7.39029710	    -16.12117344	     19.99738387	     -4.96028633	     -2.37267366	     32.16083829	     32.16083829	     16.92609533	    -15.58015669	      4.01439589	     -9.31993799	      6.72320648	      2.50717219	     12.41901367	    -11.52748800	     -5.52295471	     30.01510083	     45.67290220	      0.00000000	      0.00000000	     22.16634871	    -12.39234261	      6.44928833	     39.05771526	     45.53098294	      0.00000000	      0.00000000
     19.20357143	     -2.96713777	     -4.84648912	     -2.76473976	      0.94069750	      0.91804654	      0.40816467	     18.51082330	     -7.93738970	     -0.67767708	     56.17568491	     56.17568491	      1.62261622	     -8.54230352	    -14.67242491	     19.78132574	     -4.88650548	     -2.78717120	     32.57071063	     32.57071063	     17.37072015	    -15.82867611	      3.93935423	     -9.51753374	      6.78736004	      2.21233324	      8.71414053	    -11.56779583	     -5.44795238	     28.04103785	     45.72858920	      0.00000000	      0.00000000	     23.39591852	    -12.85662090	      5.99317959	     40.32212413	     45.60994213	      0.00000000	      0.00000000
     19.22535714	     -2.85645146	     -4.94782935	     -3.33962578	      0.94053198	      0.91767555	      0.40617608	     20.64263922	     -7.60580394	      0.23083640	     59.12435453	     59.12435453	      3.13234860	     -7.79060739	     -6.47705198	     19.37493678	     -4.96150060	     -3.23520305	     32.86823012	     32.86823012	     18.12316959	    -15.77408087	      4.37161727	     -9.86695027	      6.96254214	      1.72388569	      5.72319571	    -11.54727435	     -5.59854057	     24.83177466	     45.91594640	      0.00000000	      0.00000000	     23.87143280	    -13.53580522	      4.38256491	     43.47538352	     45.84609635	      0.00000000	      0.00000000
     19.24714286	     -2.87928987	     -4.94749799	     -3.97442964	      0.94031275	      0.91771672	      0.40455736	     22.44652508	     -7.30149480	      1.03312583	     60.62189058	     60.62189058	      2.45249907	     -8.53074467	     -5.87890453	     18.91591961	     -4.92747424	     -3.71641363	     32.75991812	     32.75991812	     18.42563855	    -15.93863858	      4.34523670	    -10.01438358	      7.02297336	      1.50416659	      2.20388357	    -11.72369984	     -5.65008226	     23.22134059	     45.96685600	      0.00000000	      0.00000000	     25.14169504	    -14.14913178	      3.87327324	     44.55444329	     45.92493149	      0.00000000	      0.00000000
     19.26892857	     -2.89104891	     -5.09046649	     -4.66242777	      0.94012950	      0.91847347	      0.40349670	     24.02227570	     -6.82426481	      1.62824675	     61.38092027	     61.38092027	      3.25159909	     -8.31912346	     -2.47860105	     18.27703939	     -5.12178978	     -4.35704489	     32.38262439	     32.38262439	     18.66612385	    -15.83237058	      4.28493432	    -10.28851867	      7.23062253	      1.33350857	     -1.13752480	    -11.95642400	     -6.44156577	     21.98845625	     46.13438400	      0.00000000	      0.00000000	     25.73427966	    -14.69298402	      1.97681891	     47.54218230	     46.17049833	      0.00000000	      0.00000000
     19.29071429	     -2.99426110	     -5.14915314	     -5.40389981	      0.93984866	      0.91978745	      0.40301428	     25.34529174	     -6.38307248	      2.13701692	     60.95305173	     60.95305173	      3.38324968	     -8.51394917	     -2.39341769	     17.54759519	     -5.23188378	     -5.02966859	     31.62864935	     31.62864935	     18.70405833	    -15.79378145	      4.40571518	    -10.39971157	      7.31114225	      1.36516963	     -4.26919612	    -12.25826154	     -6.61102235	     20.79020598	     46.18714705	      0.00000000	      0.00000000	     26.99424106	    -15.32215934	      1.33079629	     48.88623981	     46.26174245	      0.00000000	      0.00000000
     19.31250000	     -3.22724492	     -5.29919528	     -6.17339614	      0.93951670	      0.92152672	      0.40317178	     26.45199551	     -5.88704014	      2.32739968	     59.43470722	     59.43470722	      3.62899235	     -8.50344054	     -3.13465656	     16.80542911	     -5.50035152	     -5.79718888	     30.59997123	     30.59997123	     18.58225325	    -15.61408317	      4.15477594	    -10.40914301	      7.42629303	      1.17966176	     -7.41359690	    -12.54988147	     -7.37346320	     21.04612326	     46.26047251	      0.00000000	      0.00000000	     27.52902752	    -16.04030913	     -0.32958404	     51.63424786	     46.45890068	      0.00000000	      0.00000000
     19.33428571	     -3.43397535	     -5.37731683	     -6.99401790	      0.93912924	      0.92384932	      0.40390424	     27.22381492	     -5.44591910	      2.45693984	     56.91736917	     56.91736917	      4.21939099	     -8.17914554	     -3.83322720	     15.81805986	     -5.68015189	     -6.62521486	     29.16174153	     29.16174153	     18.39051160	    -15.36613472	      4.32548959	    -10.42363457	      7.42641983	      1.18836495	    -10.00733967	    -12.81078144	     -7.64865654	     20.66392532	     46.29074855	      0.00000000	      0.00000000	     28.63396585	    -16.80992862	     -1.19915683	     53.23942333	     46.56796814	      0.00000000	      0.00000000
     19.35607143	     -3.85305464	     -5.54267222	     -7.80345353	      0.93854063	      0.92615028	      0.40522762	     27.70868724	     -4.92874961	      2.26968494	     53.02296942	     53.02296942	      3.33163608	     -8.45408454	     -8.89386495	     15.02096602	     -6.00975731	     -7.45634553	     27.60603858	     27.60603858	     17.70483357	    -15.20341944	      3.51912432	    -10.30180412	      7.50818941	      0.97414839	    -12.85701983	    -13.11083271	     -8.54428515	     22.50369357	     46.33877296	      0.00000000	      0.00000000	     29.03087587	    -17.52691091	     -3.62094729	     56.33187406	     46.83745427	      0.00000000	      0.00000000
     19.37785714	     -4.27622648	     -5.62611407	     -8.64017544	      0.93789853	      0.92852440	      0.40707192	     27.99600537	     -4.51093874	      1.93592478	     48.59121313	     48.59121313	      3.93787210	     -7.24222673	     -9.69630765	     14.15829867	     -6.26047002	     -8.36824455	     25.94190292	     25.94190292	     17.35101743	    -14.76409944	      3.70088673	    -10.15224979	      7.44773131	      1.24678977	    -15.11464263	    -13.22572808	     -8.75328071	     22.88472143	     46.32833922	      0.00000000	      0.00000000	     30.10980353	    -18.25041650	     -4.46927133	     58.49188179	     46.94832340	      0.00000000	      0.00000000
     19.39964286	     -4.66542955	     -5.79906627	     -9.40678526	      0.93721067	      0.93088248	      0.40933459	     27.82687163	     -4.01393924	      1.31797984	     43.32673417	     43.32673417	      4.31707679	     -5.46791895	     -9.94586473	     13.25434406	     -6.60635605	     -9.23867618	     24.28133831	     24.28133831	     16.99641475	    -14.31957804	      3.87376553	    -10.03959963	      7.46125167	      1.38482793	    -16.93218165	    -13.29778431	     -8.89888301	     23.39047473	     46.30326162	      0.00000000	      0.00000000	     31.30251925	    -19.05227732	     -5.29760752	     60.33421578	     47.05142143	      0.00000000	      0.00000000
     19.42142857	     -5.27999244	     -5.96082866	    -10.09594498	      0.93644958	      0.93261080	      0.41198680	     27.50352210	     -3.40813130	      0.59473640	     37.42448357	     37.42448357	      4.39581271	     -3.38159678	     -9.43243665	     12.71776637	     -6.99260599	     -9.96885752	     22.81738329	     22.81738329	     16.64003406	    -13.85873478	      4.03734986	     -9.61820233	      7.50563487	      1.51815770	    -18.41678778	    -13.26841996	     -8.97416927	     23.72740579	     46.27980622	      0.00000000	      0.00000000	     32.53605884	    -19.79079044	     -5.93915189	     61.86171464	     47.13355539	      0.00000000	      0.00000000
